<svg xmlns="http://www.w3.org/2000/svg" viewBox="0 0 518.29 453.76"><defs><style>.cls-1{fill:#f9b233;}</style></defs><title>Asset 5</title><g id="Layer_2" data-name="Layer 2"><g id="Layer_1-2" data-name="Layer 1"><path class="cls-1" d="M492,128.15h-4.66L259.14,261.87,30.93,128.15H26.26A26.26,26.26,0,0,0,0,154.41V427.5a26.26,26.26,0,0,0,26.26,26.26H492a26.26,26.26,0,0,0,26.27-26.26V154.41A26.26,26.26,0,0,0,492,128.15ZM491,168,278.56,291.84l-4.23,2.48L479.48,413.94a7.58,7.58,0,0,1,2.72,10.45,7.86,7.86,0,0,1-10.46,2.75L260.59,304l-1.44-.83-212.62,124a7.9,7.9,0,0,1-10.45-2.79,7.62,7.62,0,0,1,2.75-10.43L239.74,296.79l4.23-2.47L27.29,168a7.64,7.64,0,0,1-2.75-10.44A7.62,7.62,0,0,1,29.23,154a7.24,7.24,0,0,1,5.79.8L257.71,284.64l1.44.82,224.1-130.65.05,0A7.3,7.3,0,0,1,489,154a7.73,7.73,0,0,1,4.75,3.57A7.61,7.61,0,0,1,491,168Z"/><path class="cls-1" d="M30.93,128.15H487.36L276.88,4.81a35.12,35.12,0,0,0-35.47,0Z"/></g></g></svg>